<?xml version="1.0" encoding="UTF-8"?>
<svg xmlns="http://www.w3.org/2000/svg" xmlns:xlink="http://www.w3.org/1999/xlink" width="500pt" height="505pt" viewBox="0 0 500 505" version="1.1">
<g id="surface1">
<path style=" stroke:none;fill-rule:nonzero;fill:rgb(0%,0%,0%);fill-opacity:1;" d="M 177.058594 25.25 L 172.941406 11.746094 C 168.234375 12.917969 163.53125 14.679688 159.410156 16.441406 L 164.707031 29.359375 C 168.234375 28.1875 172.941406 26.425781 177.058594 25.25 Z M 127.648438 47.5625 L 120.589844 35.820312 C 116.46875 38.167969 112.351562 41.105469 108.234375 43.453125 L 116.46875 55.199219 C 120 52.261719 124.117188 49.914062 127.648438 47.5625 Z M 15.882812 279.511719 L 1.765625 281.273438 C 2.351562 285.972656 2.941406 290.667969 4.117188 295.367188 L 17.648438 293.015625 C 17.648438 288.320312 16.46875 284.210938 15.882812 279.511719 Z M 50.589844 123.3125 L 38.824219 115.679688 C 36.46875 119.789062 33.53125 123.902344 31.765625 128.011719 L 44.117188 135.058594 C 45.882812 130.949219 48.234375 127.425781 50.589844 123.3125 Z M 15.882812 337.058594 C 17.648438 341.753906 19.410156 345.867188 21.175781 350.5625 L 34.117188 344.691406 C 32.351562 340.582031 30.589844 336.472656 28.824219 332.359375 Z M 27.058594 172.050781 L 13.53125 167.355469 C 11.765625 172.050781 10.589844 176.75 9.410156 180.859375 L 22.941406 184.382812 C 24.117188 180.859375 25.882812 176.75 27.058594 172.050781 Z M 15.292969 225.488281 L 1.175781 224.3125 C 0.589844 229.011719 0.589844 233.710938 0 238.40625 L 14.117188 238.996094 C 14.707031 234.296875 14.707031 229.597656 15.292969 225.488281 Z M 491.765625 182.035156 C 490.589844 177.335938 488.824219 172.640625 487.648438 168.527344 L 474.117188 172.640625 C 475.292969 176.75 477.058594 181.449219 478.234375 185.558594 Z M 230.589844 14.09375 L 229.410156 0 C 224.707031 0.585938 220 1.175781 215.292969 1.761719 L 217.058594 15.855469 C 221.175781 15.265625 225.882812 14.679688 230.589844 14.09375 Z M 470 128.597656 C 467.648438 124.488281 465.292969 120.378906 462.941406 116.265625 L 451.175781 123.902344 C 453.53125 128.011719 455.882812 131.535156 458.234375 135.644531 Z M 486.46875 238.996094 L 500.589844 238.40625 C 500.589844 233.710938 500 229.011719 499.410156 224.3125 L 485.882812 225.488281 C 486.46875 230.1875 486.46875 234.882812 486.46875 238.996094 Z M 392.941406 44.039062 C 388.824219 41.105469 384.707031 38.753906 380.589844 36.40625 L 373.53125 48.152344 C 377.648438 50.5 381.175781 52.847656 384.707031 55.785156 Z M 286.46875 1.761719 C 281.765625 1.175781 277.058594 0.585938 272.351562 0 L 271.175781 14.09375 C 275.882812 14.679688 280 15.265625 284.707031 15.855469 Z M 342.351562 16.441406 C 337.648438 14.679688 333.53125 12.917969 328.824219 11.746094 L 324.707031 25.25 C 328.824219 26.425781 333.53125 28.1875 337.648438 29.949219 Z M 74.707031 71.050781 C 71.175781 74.574219 68.234375 78.097656 64.707031 81.621094 L 75.292969 91.015625 C 78.234375 87.496094 81.765625 84.558594 84.707031 81.035156 Z M 416.46875 81.621094 C 419.410156 84.558594 422.941406 88.082031 425.882812 91.605469 L 436.46875 82.210938 C 433.53125 78.6875 430 75.164062 426.46875 71.640625 Z M 42.351562 388.144531 C 45.292969 392.253906 47.648438 395.777344 50.589844 399.890625 L 61.765625 391.667969 C 58.824219 388.144531 56.46875 384.621094 54.117188 380.511719 Z M 401.175781 431.011719 L 410 441.582031 C 413.53125 438.644531 417.058594 435.121094 420.589844 432.1875 L 411.175781 422.203125 C 408.234375 425.140625 404.707031 428.074219 401.175781 431.011719 Z M 355.882812 460.960938 L 362.351562 473.289062 C 366.46875 470.941406 371.175781 468.59375 375.292969 466.246094 L 368.234375 453.914062 C 363.53125 456.847656 360 458.609375 355.882812 460.960938 Z M 466.46875 345.277344 L 479.410156 351.152344 C 481.175781 347.039062 482.941406 342.34375 484.707031 337.644531 L 471.765625 332.949219 C 470 337.058594 468.234375 341.167969 466.46875 345.277344 Z M 482.941406 293.605469 L 496.46875 295.953125 C 497.648438 291.253906 498.234375 286.558594 498.824219 281.859375 L 484.707031 280.097656 C 484.117188 284.210938 483.53125 288.90625 482.941406 293.605469 Z M 438.824219 391.667969 L 450 399.890625 C 452.941406 395.777344 455.882812 392.253906 458.234375 388.144531 L 446.46875 380.511719 C 444.117188 384.621094 441.765625 388.144531 438.824219 391.667969 Z M 125.882812 466.246094 C 130 468.59375 134.117188 470.941406 138.824219 473.289062 L 145.292969 460.960938 C 141.175781 459.199219 137.058594 456.847656 133.53125 454.5 Z M 80 432.1875 C 83.53125 435.710938 87.058594 438.644531 90.589844 441.582031 L 99.410156 431.011719 C 95.882812 428.074219 92.351562 425.140625 89.410156 422.203125 Z M 254.707031 312.984375 C 285.292969 312.984375 310.589844 287.734375 310.589844 257.199219 C 310.589844 253.085938 307.648438 250.152344 303.53125 250.152344 C 299.410156 250.152344 296.46875 253.085938 296.46875 257.199219 C 296.46875 280.097656 277.648438 298.890625 254.707031 298.890625 C 231.765625 298.890625 212.941406 280.097656 212.941406 257.199219 C 212.941406 253.085938 210 250.152344 205.882812 250.152344 C 201.765625 250.152344 198.824219 253.085938 198.824219 257.199219 C 198.824219 288.320312 223.53125 312.984375 254.707031 312.984375 Z M 205.882812 213.15625 C 210 213.15625 212.941406 210.222656 212.941406 206.109375 L 212.941406 195.539062 C 212.941406 191.429688 210 188.496094 205.882812 188.496094 C 201.765625 188.496094 198.824219 191.429688 198.824219 195.539062 L 198.824219 206.109375 C 198.824219 210.222656 201.765625 213.15625 205.882812 213.15625 Z M 303.53125 213.15625 C 307.648438 213.15625 310.589844 210.222656 310.589844 206.109375 L 310.589844 195.539062 C 310.589844 191.429688 307.648438 188.496094 303.53125 188.496094 C 299.410156 188.496094 296.46875 191.429688 296.46875 195.539062 L 296.46875 206.109375 C 296.46875 210.222656 299.410156 213.15625 303.53125 213.15625 Z M 311.175781 469.765625 C 307.648438 468.003906 303.53125 469.179688 301.765625 472.117188 C 295.882812 482.097656 285.292969 488.558594 273.53125 488.558594 L 234.117188 488.558594 C 222.351562 488.558594 211.765625 482.097656 205.882812 472.117188 C 204.117188 468.59375 199.410156 467.417969 196.46875 469.765625 C 192.941406 471.527344 191.765625 476.226562 194.117188 479.164062 C 202.351562 493.253906 218.234375 502.652344 234.707031 502.652344 L 274.117188 502.652344 C 290.589844 502.652344 306.46875 493.84375 314.707031 479.164062 C 315.292969 475.640625 314.117188 471.527344 311.175781 469.765625 Z M 320 406.9375 L 320 384.035156 C 375.292969 358.199219 410.589844 303 410.589844 241.929688 C 410.589844 155.609375 340 85.144531 253.53125 85.144531 C 167.058594 85.144531 96.46875 155.609375 96.46875 241.929688 C 96.46875 303 131.765625 358.199219 187.058594 384.035156 L 187.058594 422.789062 C 187.058594 448.628906 208.234375 469.179688 233.53125 469.179688 L 272.941406 469.179688 C 298.824219 469.179688 319.410156 448.039062 319.410156 422.789062 L 319.410156 409.871094 C 320 409.285156 320 408.109375 320 406.9375 Z M 110 241.929688 C 110 163.246094 174.117188 98.652344 253.53125 98.652344 C 332.941406 98.652344 396.46875 163.246094 396.46875 241.929688 C 396.46875 298.890625 362.351562 350.5625 310 373.464844 L 305.882812 375.226562 L 305.882812 406.9375 C 299.410156 416.332031 288.234375 421.617188 275.882812 421.617188 L 232.941406 421.617188 C 220 421.617188 208.234375 415.15625 201.765625 405.175781 C 201.175781 404.585938 201.175781 404.585938 200.589844 404 L 200.589844 375.226562 L 196.46875 373.464844 C 144.117188 350.5625 110 298.890625 110 241.929688 Z M 272.941406 455.675781 L 233.53125 455.675781 C 215.882812 455.675781 201.765625 441.582031 201.175781 424.550781 C 210 431.597656 221.175781 435.710938 233.53125 435.710938 L 276.46875 435.710938 C 287.058594 435.710938 297.648438 432.1875 305.882812 426.3125 C 303.53125 442.753906 290 455.675781 272.941406 455.675781 Z M 272.941406 455.675781 "/>
</g>
</svg>
